<svg width="20" height="20" viewBox="0 0 20 20" fill="black" xmlns="http://www.w3.org/2000/svg">
<g id="icon-close">
<path id="Union" fill-rule="evenodd" clip-rule="evenodd" d="M16.4539 15.2753C16.7948 15.6162 16.8074 16.1564 16.4819 16.4818C16.1565 16.8073 15.6163 16.7947 15.2754 16.4538L10.0001 11.1785L4.72489 16.4538C4.38396 16.7947 3.84376 16.8073 3.51832 16.4818C3.19288 16.1564 3.20544 15.6162 3.54638 15.2753L8.82162 10L3.54638 4.72477C3.20544 4.38383 3.19288 3.84363 3.51832 3.5182C3.84375 3.19276 4.38396 3.20532 4.72489 3.54626L10.0001 8.8215L15.2754 3.54627C15.6163 3.20533 16.1565 3.19277 16.4819 3.51821C16.8074 3.84364 16.7948 4.38384 16.4539 4.72478L11.1786 10L16.4539 15.2753Z" fill="black"></path>
</g>
</svg>