<svg width="20" height="20" viewBox="0 0 20 20" fill="black" xmlns="http://www.w3.org/2000/svg">
<g id="icon-menu">
<path id="Union" fill-rule="evenodd" clip-rule="evenodd" d="M0.833008 4.99996C0.833008 4.53972 1.22387 4.16663 1.70602 4.16663H18.2933C18.7755 4.16663 19.1663 4.53972 19.1663 4.99996C19.1663 5.4602 18.7755 5.83329 18.2933 5.83329H1.70602C1.22387 5.83329 0.833008 5.4602 0.833008 4.99996ZM0.833008 9.99996C0.833008 9.53972 1.22387 9.16663 1.70602 9.16663H18.2933C18.7755 9.16663 19.1663 9.53972 19.1663 9.99996C19.1663 10.4602 18.7755 10.8333 18.2933 10.8333H1.70602C1.22387 10.8333 0.833008 10.4602 0.833008 9.99996ZM1.70602 14.1666C1.22387 14.1666 0.833008 14.5397 0.833008 15C0.833008 15.4602 1.22387 15.8333 1.70602 15.8333H18.2933C18.7755 15.8333 19.1663 15.4602 19.1663 15C19.1663 14.5397 18.7755 14.1666 18.2933 14.1666H1.70602Z" fill="#000"></path>
</g>
</svg>