<?xml version="1.0" encoding="utf-8"?>
<!-- Generator: Adobe Illustrator 27.5.0, SVG Export Plug-In . SVG Version: 6.00 Build 0)  -->
<svg version="1.1" xmlns="http://www.w3.org/2000/svg" xmlns:xlink="http://www.w3.org/1999/xlink" x="0px" y="0px"
	 viewBox="0 0 500 500" style="enable-background:new 0 0 500 500;" xml:space="preserve">
<g id="Background_complete">
	<g>
		<rect x="272.338" y="55.343" style="fill:#E0E0E0;" width="75.819" height="108.513"/>
		<rect x="276.011" y="58.531" style="fill:#F5F5F5;" width="68.193" height="100.953"/>
		
			<ellipse transform="matrix(0.1614 -0.9869 0.9869 0.1614 166.6506 385.4286)" style="fill:#E0E0E0;" cx="310.107" cy="94.659" rx="23.42" ry="23.42"/>
		<path style="fill:#F5F5F5;" d="M315.279,99.83c-2.856,2.856-7.487,2.856-10.343,0c-2.856-2.856-2.856-7.487,0-10.342
			c2.856-2.856,7.487-2.856,10.343,0C318.135,92.343,318.135,96.974,315.279,99.83z"/>
		<path style="fill:#E0E0E0;" d="M325.68,134.679h-31.145c-1.355,0-2.453-1.098-2.453-2.453l0,0c0-1.355,1.098-2.453,2.453-2.453
			h31.145c1.355,0,2.453,1.098,2.453,2.453l0,0C328.133,133.581,327.035,134.679,325.68,134.679z"/>
	</g>
	<g>
		<rect x="363.131" y="85.917" style="fill:#E0E0E0;" width="64.713" height="92.618"/>
		<rect x="366.266" y="88.638" style="fill:#F5F5F5;" width="58.204" height="86.165"/>
		
			<ellipse transform="matrix(0.1561 -0.9877 0.9877 0.1561 215.641 491.3449)" style="fill:#E0E0E0;" cx="395.368" cy="119.474" rx="19.99" ry="19.99"/>
		<path style="fill:#F5F5F5;" d="M399.782,123.887c-2.438,2.438-6.39,2.438-8.828,0c-2.438-2.438-2.438-6.39,0-8.827
			c2.438-2.438,6.39-2.438,8.828,0C402.22,117.498,402.22,121.45,399.782,123.887z"/>
		<path style="fill:#E0E0E0;" d="M408.66,153.632h-26.583c-1.156,0-2.094-0.937-2.094-2.094l0,0c0-1.156,0.938-2.094,2.094-2.094
			h26.583c1.156,0,2.094,0.937,2.094,2.094l0,0C410.753,152.695,409.816,153.632,408.66,153.632z"/>
	</g>
	<g>
		<rect x="366.244" y="313.66" style="fill:#E6E6E6;" width="85.818" height="93.126"/>
		<rect x="391.956" y="313.66" style="fill:#EBEBEB;" width="75.212" height="93.126"/>
		<rect x="395.488" y="316.149" style="fill:#FFFFFF;" width="68.762" height="14.346"/>
		<rect x="395.488" y="333.413" style="fill:#E0E0E0;" width="68.762" height="70.503"/>
		<circle style="fill:#E0E0E0;" cx="455.937" cy="323.604" r="3.887"/>
		<path style="fill:#E0E0E0;" d="M421.813,323.604c0,2.147-1.74,3.887-3.887,3.887c-2.147,0-3.887-1.74-3.887-3.887
			c0-2.147,1.74-3.887,3.887-3.887C420.073,319.717,421.813,321.457,421.813,323.604z"/>
		<path style="fill:#E0E0E0;" d="M446.961,321.667L446.961,321.667c1.07,0,1.937,0.867,1.937,1.937c0,1.07-0.867,1.937-1.937,1.937
			c-1.07,0-1.937-0.867-1.937-1.937S445.891,321.667,446.961,321.667z"/>
		<path style="fill:#E0E0E0;" d="M437.029,321.667c0.004,0,0.008,0,0.012,0c1.077,0.007,1.944,0.885,1.937,1.962
			c-0.007,1.077-0.885,1.944-1.962,1.937s-1.944-0.885-1.937-1.962C435.087,322.532,435.957,321.667,437.029,321.667z"/>
		<path style="fill:#E0E0E0;" d="M427.085,321.667L427.085,321.667c1.07,0,1.937,0.867,1.937,1.937c0,1.07-0.867,1.937-1.937,1.937
			c-1.07,0-1.937-0.867-1.937-1.937S426.016,321.667,427.085,321.667z"/>
		<circle style="fill:#E0E0E0;" cx="405.272" cy="323.604" r="3.887"/>
		<rect x="419.238" y="363.711" style="fill:#FFFFFF;" width="21.274" height="6.707"/>
	</g>
	<g>
		<rect x="56.122" y="301.745" style="fill:#E6E6E6;" width="97.72" height="106.041"/>
		<rect x="56.136" y="301.745" style="fill:#EBEBEB;" width="68.428" height="106.041"/>
		
			<ellipse transform="matrix(0.7646 -0.6445 0.6445 0.7646 -217.7667 145.5271)" style="fill:#E6E6E6;" cx="90.33" cy="370.866" rx="22.604" ry="22.604"/>
		<path style="fill:#E0E0E0;" d="M90.287,337.767L90.287,337.767L90.287,337.767c-6.092,0-11.03-4.938-11.03-11.03
			s4.938-11.03,11.03-11.03c6.092,0,11.03,4.938,11.03,11.03C101.317,332.829,96.379,337.767,90.287,337.767z"/>
		<path style="fill:#FFFFFF;" d="M96.556,369.307c-0.008,3.547-2.889,6.416-6.436,6.409h0c-3.555,0-6.436-2.882-6.436-6.436
			c0-3.555,2.882-6.437,6.437-6.437c3.555,0,6.436,2.882,6.436,6.437C96.556,369.289,96.556,369.298,96.556,369.307z"/>
	</g>
	<g>
		<rect x="65.686" y="42.893" style="fill:#E0E0E0;" width="153.417" height="169.765"/>
		<rect x="72.437" y="49.617" style="fill:#F5F5F5;" width="140.318" height="156.666"/>
		<polygon style="fill:#FFFFFF;" points="112.093,49.617 72.437,198.135 72.437,117.732 90.583,49.617 		"/>
		<polygon style="fill:#FFFFFF;" points="129.817,49.617 87.994,206.282 80.106,206.282 121.929,49.617 		"/>
		<polygon style="fill:#FFFFFF;" points="212.755,92.339 212.755,172.756 203.872,206.282 182.361,206.282 		"/>
		<rect x="139.67" y="42.893" style="fill:#E0E0E0;" width="5.45" height="169.765"/>
		<rect x="68.35" y="77.339" style="fill:#E0E0E0;" width="147.811" height="5.45"/>
	</g>
	<path style="opacity:0.5;fill:#FFFFFF;" d="M220.617,270.576c2.863,2.336,37.156,86.033,41.45,99.066s10.734,86.555,10.734,86.555
		l17.175-5.79c0,0,3.578-66.934,0-86.879c-3.578-19.945-30.613-107.838-32.84-112.956c-2.226-5.118-6.52-21.533-6.52-21.533
		l-35.066,7.525L220.617,270.576z"/>
	<g>
		<path style="fill:#E0E0E0;" d="M443.92,304.443H263.174c-3.232,0-5.862-2.63-5.862-5.862V35.307c0-3.232,2.63-5.862,5.862-5.862
			H443.92c3.232,0,5.862,2.629,5.862,5.862v263.273C449.783,301.813,447.153,304.443,443.92,304.443z M263.174,29.695
			c-3.095,0-5.612,2.518-5.612,5.612v263.273c0,3.095,2.518,5.612,5.612,5.612H443.92c3.095,0,5.612-2.517,5.612-5.612V35.307
			c0-3.094-2.518-5.612-5.612-5.612H263.174z"/>
		<path style="fill:#E0E0E0;" d="M235.493,304.443H54.746c-3.232,0-5.862-2.63-5.862-5.862V35.307c0-3.232,2.629-5.862,5.862-5.862
			h180.747c3.232,0,5.862,2.629,5.862,5.862v263.273C241.355,301.813,238.725,304.443,235.493,304.443z M54.746,29.695
			c-3.094,0-5.612,2.518-5.612,5.612v263.273c0,3.095,2.518,5.612,5.612,5.612h180.747c3.095,0,5.612-2.517,5.612-5.612V35.307
			c0-3.094-2.518-5.612-5.612-5.612H54.746z"/>
		<rect x="0" y="407.049" style="fill:#E0E0E0;" width="500" height="0.25"/>
		<rect x="51.672" y="421.314" style="fill:#E0E0E0;" width="16.06" height="0.25"/>
		<rect x="170.352" y="418.603" style="fill:#E0E0E0;" width="53.53" height="0.25"/>
		<rect x="68.732" y="430.603" style="fill:#E0E0E0;" width="36.25" height="0.25"/>
		<rect x="378.352" y="418.474" style="fill:#E0E0E0;" width="43.19" height="0.25"/>
		<rect x="430.452" y="418.474" style="fill:#E0E0E0;" width="6.33" height="0.25"/>
		<rect x="316.212" y="424.703" style="fill:#E0E0E0;" width="53.89" height="0.25"/>
	</g>
</g>
<g id="Background_simple" style="display:none;">
	<g id="freepik--background-simple--inject-2" style="display:inline;">
		<path style="fill:#407BFF;" d="M129.409,293.604c29,36,72.81,45.88,106.12,15.93c39.13-38.22,46.89-100,104.49-117.29
			c88.81-14.43,56.55-106.33,30.4-119.76c-55.15-32.52-182,58.9-210.27,82.35C102.119,201.114,88.139,241.674,129.409,293.604z"/>
		<path style="opacity:0.9;fill:#FFFFFF;enable-background:new    ;" d="M129.409,293.604c29,36,72.81,45.88,106.12,15.93
			c39.13-38.22,46.89-100,104.49-117.29c88.81-14.43,56.55-106.33,30.4-119.76c-55.15-32.52-182,58.9-210.27,82.35
			C102.119,201.114,88.139,241.674,129.409,293.604z"/>
	</g>
</g>
<g id="Shadow">
	<g>
		<g>
			<path style="fill:#F5F5F5;" d="M436.113,452.013c0,8.791-82.241,15.918-183.691,15.918s-183.69-7.127-183.69-15.918
				c0-8.792,82.241-15.918,183.69-15.918S436.113,443.221,436.113,452.013z"/>
		</g>
	</g>
</g>
<g id="Lines">
	<g>
		<path style="fill:none;stroke:#263238;stroke-linecap:round;stroke-linejoin:round;stroke-miterlimit:10;" d="M333.948,331.784
			c3.506,4.589,7.012,9.177,10.518,13.766"/>
		
			<line style="fill:none;stroke:#263238;stroke-linecap:round;stroke-linejoin:round;stroke-miterlimit:10;" x1="354.254" y1="344.9" x2="352.504" y2="314.994"/>
		
			<line style="fill:none;stroke:#263238;stroke-linecap:round;stroke-linejoin:round;stroke-miterlimit:10;" x1="363.177" y1="344.9" x2="368.611" y2="327.341"/>
	</g>
</g>
<g id="Musical_Notes">
	<g>
		<path style="fill:#263238;" d="M350.928,101.052c-0.647-0.542-1.467-0.833-2.311-0.817c-0.974,0.016-1.908-0.393-2.557-1.119
			l-0.101-0.336c-0.035-0.117-0.157-0.184-0.274-0.151c-0.116,0.035-0.184,0.157-0.151,0.274l3.856,13.01
			c-0.299-0.172-0.631-0.28-0.974-0.319c-0.841-0.082-1.688,0.073-2.445,0.448c-1.729,0.806-2.708,2.378-2.182,3.509
			c0.453,0.974,1.88,1.304,3.357,0.862c0.247-0.074,0.488-0.166,0.722-0.274c0.774-0.341,1.436-0.891,1.914-1.589
			c0.413-0.54,0.518-1.255,0.28-1.891l0,0l-2.703-9.116c0.655,0.563,1.492,0.867,2.356,0.856c1.031-0.011,2.012,0.448,2.664,1.248
			c0.044,0.044,0.108,0.061,0.168,0.045h0.039c0.066-0.038,0.099-0.116,0.078-0.19l-0.957-3.218
			C351.584,101.8,351.311,101.369,350.928,101.052z"/>
		<path style="fill:#263238;" d="M355.556,240.969c-0.647-0.542-1.467-0.832-2.311-0.817c-0.975,0.016-1.908-0.393-2.557-1.119
			l-0.101-0.336c-0.035-0.117-0.157-0.184-0.274-0.151c-0.116,0.035-0.184,0.157-0.151,0.274l3.856,13.01
			c-0.299-0.172-0.631-0.28-0.974-0.319c-0.841-0.081-1.688,0.074-2.445,0.448c-1.729,0.806-2.709,2.378-2.182,3.509
			c0.453,0.974,1.88,1.304,3.357,0.862c0.247-0.074,0.488-0.166,0.722-0.274c0.774-0.341,1.437-0.891,1.914-1.589
			c0.412-0.54,0.518-1.255,0.28-1.891l0,0l-2.703-9.116c0.655,0.563,1.492,0.867,2.356,0.856c1.031-0.011,2.012,0.448,2.664,1.248
			c0.044,0.044,0.108,0.061,0.168,0.045h0.039c0.066-0.038,0.099-0.116,0.078-0.19l-0.957-3.218
			C356.212,241.717,355.94,241.286,355.556,240.969z"/>
		<path style="fill:#263238;" d="M385.491,70.933c-0.47-0.394-1.066-0.605-1.679-0.593c-0.708,0.011-1.386-0.285-1.858-0.813
			l-0.073-0.244c-0.025-0.085-0.114-0.133-0.199-0.11c-0.085,0.025-0.133,0.114-0.11,0.199l2.801,9.45
			c-0.217-0.125-0.458-0.203-0.707-0.232c-0.611-0.059-1.226,0.053-1.776,0.325c-1.256,0.585-1.967,1.727-1.585,2.549
			c0.329,0.707,1.366,0.947,2.439,0.626c0.179-0.054,0.355-0.121,0.524-0.199c0.562-0.248,1.043-0.648,1.39-1.154
			c0.3-0.392,0.376-0.911,0.203-1.374l0,0l-1.963-6.621c0.476,0.409,1.084,0.63,1.711,0.622c0.749-0.008,1.461,0.326,1.935,0.907
			c0.032,0.032,0.078,0.044,0.122,0.032h0.028c0.048-0.028,0.072-0.085,0.057-0.138l-0.695-2.337
			C385.968,71.477,385.77,71.163,385.491,70.933z"/>
		<path style="fill:#263238;" d="M382.214,292.093c-0.47-0.394-1.066-0.605-1.679-0.594c-0.708,0.012-1.386-0.285-1.858-0.813
			l-0.073-0.244c-0.025-0.085-0.114-0.133-0.199-0.11c-0.085,0.025-0.133,0.114-0.11,0.199l2.801,9.45
			c-0.217-0.125-0.458-0.204-0.707-0.232c-0.611-0.059-1.226,0.053-1.776,0.325c-1.256,0.585-1.967,1.727-1.585,2.549
			c0.329,0.707,1.366,0.947,2.439,0.626c0.179-0.054,0.355-0.121,0.524-0.199c0.562-0.248,1.044-0.647,1.39-1.154
			c0.3-0.392,0.376-0.911,0.203-1.374l0,0l-1.963-6.621c0.476,0.409,1.084,0.63,1.711,0.622c0.749-0.008,1.461,0.326,1.935,0.907
			c0.032,0.032,0.078,0.044,0.122,0.032h0.028c0.048-0.028,0.072-0.085,0.057-0.138l-0.695-2.337
			C382.691,292.637,382.493,292.324,382.214,292.093z"/>
		<path style="fill:#263238;" d="M313.06,60.023c-0.397-0.333-0.901-0.511-1.418-0.501c-0.598,0.01-1.171-0.241-1.57-0.687
			l-0.062-0.206c-0.021-0.071-0.096-0.113-0.168-0.093c-0.072,0.021-0.113,0.096-0.093,0.168l2.366,7.985
			c-0.184-0.105-0.387-0.172-0.598-0.196c-0.516-0.05-1.036,0.045-1.501,0.275c-1.061,0.494-1.662,1.46-1.339,2.153
			c0.278,0.598,1.154,0.8,2.06,0.529c0.152-0.046,0.3-0.102,0.443-0.168c0.475-0.209,0.882-0.547,1.175-0.975
			c0.253-0.332,0.318-0.77,0.172-1.161l0,0l-1.659-5.595c0.402,0.346,0.916,0.532,1.446,0.526c0.633-0.007,1.235,0.275,1.635,0.766
			c0.027,0.027,0.066,0.037,0.103,0.027h0.024c0.041-0.023,0.061-0.071,0.048-0.117l-0.587-1.975
			C313.463,60.483,313.296,60.218,313.06,60.023z"/>
		<path style="fill:#263238;" d="M322.819,293.051L322.819,293.051l0.733-5.996l0.272-2.234v-0.125l-6.103-0.755v0.129l-0.276,2.234
			l-0.673,5.487c-0.463-0.513-1.141-0.778-1.829-0.716c-1.091,0.026-1.963,0.634-1.945,1.346c0,0.612,0.69,1.113,1.574,1.221
			c0.144,0.011,0.288,0.011,0.431,0c1.083-0.03,1.95-0.626,1.945-1.329l0,0l0.63-5.15l5.608,0.686l-0.565,4.633
			c-0.115-0.158-0.262-0.29-0.431-0.388c-0.422-0.235-0.902-0.347-1.385-0.323c-1.096,0.03-1.967,0.634-1.95,1.346
			c0,0.613,0.69,1.113,1.574,1.221c0.144,0.01,0.288,0.01,0.431,0C321.956,294.349,322.819,293.754,322.819,293.051z
			 M317.621,286.934l0.069-0.595l5.608,0.686l-0.069,0.595L317.621,286.934z"/>
		<path style="fill:#263238;" d="M304.421,143.459L304.421,143.459l0.609-5.252l0.228-1.96l0.003-0.098l-4.946-0.03l-0.014,0.108
			l-0.226,1.961l-0.559,4.803c-0.259-0.35-0.82-0.533-1.476-0.434c-0.89,0.14-1.594,0.743-1.582,1.359
			c0.011,0.529,0.554,0.892,1.269,0.898c0.12,0.002,0.24-0.008,0.361-0.028c0.875-0.132,1.571-0.721,1.578-1.342l0,0l0.609-5.252
			l4.543,0.027l-0.546,4.785c-0.259-0.35-0.82-0.533-1.478-0.436c-0.393,0.052-0.779,0.218-1.114,0.48
			c-0.413,0.263-0.588,0.812-0.391,1.227c0.088,0.185,0.24,0.32,0.428,0.38c0.231,0.11,0.486,0.165,0.75,0.161
			c0.121,0.001,0.243-0.007,0.365-0.025C303.717,144.669,304.422,144.056,304.421,143.459z"/>
		<path style="fill:#263238;" d="M378.725,185.19L378.725,185.19l1.077-9.283l0.404-3.464l0.005-0.174l-8.742-0.053l-0.024,0.191
			l-0.4,3.466l-0.989,8.49c-0.457-0.619-1.449-0.942-2.609-0.768c-1.573,0.247-2.818,1.313-2.797,2.403
			c0.02,0.935,0.98,1.576,2.244,1.587c0.211,0.003,0.424-0.014,0.638-0.049c1.546-0.234,2.776-1.275,2.789-2.373l0,0l1.077-9.283
			l8.031,0.048l-0.965,8.457c-0.457-0.619-1.449-0.942-2.613-0.77c-0.695,0.091-1.377,0.385-1.969,0.849
			c-0.73,0.465-1.04,1.436-0.691,2.169c0.155,0.327,0.424,0.565,0.756,0.671c0.408,0.195,0.859,0.292,1.326,0.285
			c0.214,0.002,0.43-0.013,0.645-0.044C377.481,187.328,378.726,186.245,378.725,185.19z"/>
		<path style="fill:#263238;" d="M321.085,224.308L321.085,224.308l0.834-7.186l0.312-2.681l0.003-0.135l-6.767-0.041l-0.019,0.148
			l-0.309,2.683l-0.765,6.571c-0.354-0.479-1.122-0.729-2.02-0.594c-1.218,0.191-2.181,1.017-2.165,1.86
			c0.016,0.723,0.759,1.22,1.737,1.228c0.164,0.002,0.329-0.01,0.494-0.038c1.197-0.181,2.149-0.986,2.159-1.837l0,0l0.834-7.186
			l6.216,0.037l-0.747,6.546c-0.354-0.479-1.122-0.729-2.022-0.596c-0.538,0.071-1.066,0.298-1.524,0.657
			c-0.565,0.36-0.805,1.111-0.535,1.679c0.12,0.253,0.328,0.438,0.585,0.52c0.316,0.151,0.665,0.226,1.026,0.221
			c0.166,0.002,0.333-0.01,0.499-0.034C320.123,225.963,321.086,225.125,321.085,224.308z"/>
		<path style="fill:#263238;" d="M397.543,241.847L397.543,241.847l0.526-4.534l0.197-1.692l0.002-0.085l-4.27-0.026l-0.012,0.093
			l-0.195,1.693l-0.483,4.146c-0.223-0.302-0.708-0.46-1.274-0.375c-0.768,0.121-1.376,0.641-1.366,1.174
			c0.01,0.456,0.479,0.77,1.096,0.775c0.103,0.001,0.207-0.007,0.311-0.024c0.755-0.114,1.356-0.622,1.362-1.159l0,0l0.526-4.534
			l3.922,0.024l-0.471,4.131c-0.223-0.302-0.708-0.46-1.276-0.376c-0.34,0.045-0.672,0.188-0.962,0.415
			c-0.357,0.227-0.508,0.701-0.338,1.059c0.076,0.159,0.207,0.276,0.369,0.328c0.199,0.095,0.42,0.142,0.648,0.139
			c0.104,0.001,0.21-0.006,0.315-0.022C396.935,242.892,397.543,242.363,397.543,241.847z"/>
	</g>
</g>
<g id="Speech_Bubble">
	<g>
		<g>
			<g>
				<g>
					<path style="fill:#407BFF;" d="M146.976,121.53c-10.671-5.868-14.564-19.275-8.696-29.945
						c5.868-10.671,19.275-14.564,29.945-8.696c8.238,4.53,12.412,13.552,11.198,22.341l4.29,5.045l-6.632,2.23
						c-0.057,0.109-0.1,0.221-0.16,0.329C171.053,123.505,157.646,127.398,146.976,121.53z"/>
				</g>
				<path style="fill:none;stroke:#407BFF;stroke-width:0.5;stroke-linecap:round;stroke-linejoin:round;stroke-miterlimit:10;" d="
					M133.911,94.169c-2.718,6.634-1.816,14.626,2.313,20.487"/>
				<path style="fill:none;stroke:#407BFF;stroke-width:0.5;stroke-linecap:round;stroke-linejoin:round;stroke-miterlimit:10;" d="
					M138.212,117.276c0.562,0.938,1.319,1.758,2.21,2.392"/>
				<g style="opacity:0.6;">
					<path style="fill:#FFFFFF;" d="M146.976,121.53c-10.671-5.868-14.564-19.275-8.696-29.945
						c5.868-10.671,19.275-14.564,29.945-8.696c8.238,4.53,12.412,13.552,11.198,22.341l4.29,5.045l-6.632,2.23
						c-0.057,0.109-0.1,0.221-0.16,0.329C171.053,123.505,157.646,127.398,146.976,121.53z"/>
				</g>
			</g>
		</g>
		<g>
			<path style="fill:#407BFF;" d="M147.12,95.294c1.743-1.405,3.65-1.415,5.512-0.854c1.453,0.437,2.335,1.416,3.392,2.617
				c0.49,0.557,0.989,1.457,1.379,2.431c0.39-0.974,0.889-1.874,1.379-2.431c1.057-1.201,1.939-2.18,3.392-2.617
				c1.862-0.56,3.77-0.55,5.512,0.854c1.637,1.319,1.904,3.752,1.419,5.798c-0.485,2.046-1.832,4.125-3.15,5.64
				c-2.764,3.176-5.215,5.579-8.553,7.313c-4.138-2.369-5.789-4.137-8.553-7.313c-1.318-1.515-2.666-3.593-3.151-5.64
				C145.216,99.046,145.483,96.613,147.12,95.294z"/>
		</g>
	</g>
</g>
<g id="Character">
	<g>
		<g>
			<path style="fill:#FAAC6D;" d="M156.581,430.233c0.206-0.622,5.309-13.432,5.309-13.432l12.123,5.601l-6.481,12.842l-9.03-0.377
				L156.581,430.233z"/>
			<g>
				<g>
					<path style="fill:#263238;" d="M169.652,434.446l-3.526-2.225c-0.798-0.504-1.79-0.566-2.668-0.22
						c-3.786,1.493-4.651-0.521-5.215-4.527c-1.302-1.051-2.699,0.323-3.088,0.685l-8.687,7.924
						c-0.734,0.656-0.798,1.783-0.141,2.517c0.117,0.131,0.252,0.243,0.402,0.335c4.281,2.702,6.307,3.981,11.636,7.344
						l16.297,10.286c4.443,2.804,8.189-1.092,6.621-2.661c-7.081-7.013-11.38-13.112-12.413-17.112
						C168.663,436.075,169.346,436.068,169.652,434.446z"/>
					<path style="fill:#407BFF;" d="M175.582,442.001c0.539-0.033,1.031-0.32,1.325-0.773c0.186-0.225,0.227-0.537,0.105-0.803
						c-0.611-1.48-6.32-2.202-6.967-2.273c-0.067-0.015-0.138,0.001-0.192,0.043c-0.101,0.079-0.119,0.224-0.04,0.325
						c0.921,0.94,1.939,1.782,3.035,2.511C173.632,441.637,174.59,441.977,175.582,442.001z M176.525,440.584
						c0.055,0.112,0.034,0.247-0.052,0.337c-0.227,0.318-0.579,0.524-0.968,0.564c-1.473,0.116-3.687-1.732-4.835-2.794
						C173.009,439.04,176.184,439.773,176.525,440.584z"/>
					<path style="fill:#407BFF;" d="M169.933,438.66c1.672,0.283,5.819-0.142,6.396-1.387c0.13-0.256,0.139-0.653-0.409-1.111
						c-2.243-1.802-6.017,1.883-6.133,2.068c-0.071,0.059-0.1,0.155-0.073,0.243c0.037,0.042,0.085,0.072,0.138,0.087
						L169.933,438.66z M175.614,436.468c0.42,0.329,0.318,0.49,0.282,0.548c-0.317,0.782-3.471,1.318-5.389,1.169
						c0.938-0.824,3.423-2.797,4.954-1.831L175.614,436.468z"/>
					
						<path style="fill:none;stroke:#407BFF;stroke-width:0.5;stroke-linecap:round;stroke-linejoin:round;stroke-miterlimit:10;" d="
						M170.383,438.711c-1.319-0.601-2.904-0.586-4.211,0.039"/>
					
						<path style="fill:none;stroke:#407BFF;stroke-width:0.5;stroke-linecap:round;stroke-linejoin:round;stroke-miterlimit:10;" d="
						M171.533,441.744c-1.319-0.601-2.904-0.586-4.211,0.039"/>
					
						<path style="fill:none;stroke:#407BFF;stroke-width:0.5;stroke-linecap:round;stroke-linejoin:round;stroke-miterlimit:10;" d="
						M173.383,444.851c-1.319-0.601-2.904-0.586-4.211,0.039"/>
				</g>
			</g>
		</g>
		<g>
			<path style="fill:#407BFF;" d="M190.627,266.963c0,0,8.876,69.307,7.435,73.942c-3.738,12.022-40.214,79.612-40.214,79.612
				l17.133,8.304c0,0,50.558-70.251,52.604-80.929c2.046-10.678,2.054-80.537,2.054-80.537L190.627,266.963z"/>
			<path style="opacity:0.5;fill:#FFFFFF;" d="M190.627,266.963c0,0,8.876,69.307,7.435,73.942
				c-3.738,12.022-40.214,79.612-40.214,79.612l17.133,8.304c0,0,50.558-70.251,52.604-80.929
				c2.046-10.678,2.054-80.537,2.054-80.537L190.627,266.963z"/>
			<path style="opacity:0.3;" d="M194.693,300.522c0,0,5.293,9.54,18.456,8.68c13.162-0.86,16.222-5.027,16.222-5.027v-12.446
				L194.693,300.522z"/>
			<g>
				<path style="fill:#FFFFFF;" d="M221.189,338.111c-5.152-0.323-8.514-0.569-13.63-1.148c5.596,2.487,12.661,4.007,18.859,1.434
					C224.926,337.942,222.681,338.567,221.189,338.111z"/>
			</g>
			<g>
				<path style="fill:#FFFFFF;" d="M219.23,323.419c-5.152-0.323-8.514-0.569-13.63-1.148c5.596,2.488,12.661,4.008,18.859,1.434
					C222.967,323.25,220.722,323.875,219.23,323.419z"/>
			</g>
		</g>
		<path style="fill:#FAAC6D;" d="M243.571,149.219c0,0,5.166,0,6.941,5.423c1.315,4.017,14.519,39.829,14.519,39.829l31.85-5.825
			l2.588,7.584c0,0-35.552,15.45-42.112,14.294c-6.561-1.156-15.134-27.484-15.134-27.484L243.571,149.219z"/>
		<path style="fill:#FAAC6D;" d="M272.867,439.672c-0.158-0.636-2.68-14.192-2.68-14.192l13.241-1.734l1.374,14.319l-7.837,4.501
			L272.867,439.672z"/>
		<g>
			<g>
				<path style="fill:#263238;" d="M286.169,436.258H282c-0.943,0-1.816,0.477-2.374,1.238c-2.404,3.283-4.211,2.042-6.826-1.044
					c-1.662-0.194-2.11,1.714-2.246,2.227l-3.117,11.337c-0.271,0.947,0.277,1.934,1.224,2.204c0.168,0.048,0.343,0.071,0.518,0.069
					c5.063,0,7.458,0,13.76,0h19.272c5.254,0,6.342-5.295,4.178-5.784c-9.731-2.15-16.622-5.014-19.63-7.845
					C286.202,438.164,286.775,437.793,286.169,436.258z"/>
				<path style="fill:#407BFF;" d="M295.216,439.482c0.439-0.316,0.701-0.821,0.708-1.361c0.037-0.29-0.095-0.575-0.34-0.735
					c-1.307-0.925-6.519,1.511-7.104,1.797c-0.065,0.023-0.116,0.074-0.139,0.139c-0.043,0.12,0.019,0.253,0.139,0.296
					c1.281,0.303,2.59,0.472,3.906,0.504C293.372,440.215,294.365,439.991,295.216,439.482z M295.257,437.78
					c0.106,0.066,0.161,0.191,0.136,0.313c-0.022,0.39-0.21,0.752-0.517,0.993c-1.184,0.885-4.042,0.504-5.58,0.218
					C291.46,438.352,294.535,437.277,295.257,437.78z"/>
				<path style="fill:#407BFF;" d="M288.656,439.672c1.565-0.653,4.845-3.226,4.668-4.587c-0.027-0.286-0.231-0.626-0.939-0.721
					c-2.858-0.327-4.083,4.804-4.083,5.022c-0.028,0.088-0.001,0.184,0.068,0.245c0.053,0.016,0.11,0.016,0.163,0L288.656,439.672z
					 M292.29,434.786c0.531,0.055,0.531,0.245,0.531,0.313c0.15,0.83-2.232,2.967-3.933,3.865c0.354-1.198,1.402-4.192,3.212-4.192
					L292.29,434.786z"/>
				<path style="fill:none;stroke:#407BFF;stroke-width:0.5;stroke-linecap:round;stroke-linejoin:round;stroke-miterlimit:10;" d="
					M289.063,439.475c-1.436,0.196-2.768,1.054-3.541,2.281"/>
				<path style="fill:none;stroke:#407BFF;stroke-width:0.5;stroke-linecap:round;stroke-linejoin:round;stroke-miterlimit:10;" d="
					M291.654,441.426c-1.436,0.196-2.768,1.054-3.541,2.281"/>
				<path style="fill:none;stroke:#407BFF;stroke-width:0.5;stroke-linecap:round;stroke-linejoin:round;stroke-miterlimit:10;" d="
					M294.878,443.066c-1.436,0.196-2.768,1.054-3.54,2.281"/>
			</g>
		</g>
		<path style="fill:#FAAC6D;" d="M208.906,135.367l4.708-1.047l15.868,1.999l5.154,2.809l-1.886,9.737c0,0-11.314,0.755-11.81,0.725
			c-0.496-0.03-11.636-5.422-11.636-5.422L208.906,135.367z"/>
		<path style="fill:#263238;" d="M211.239,134.321l-21.543,4.887c0,0-0.702,61.582-0.702,62.463c0,0.88-6.938,25.98-8.086,28.622
			c-1.148,2.641,0,7.044,0,7.044l2.582,5.87c0,0,27.848,8.903,47.052,3.228c19.204-5.674,19.509-6.457,20.657-8.511
			c1.148-2.054-3.183-17.609-3.026-18.49c0.157-0.881,0-23.479,0-23.479l-0.342-53.547l-18.349-6.087c0,0,1.269,8.785-6.694,6.632
			C213.115,140.336,211.239,134.321,211.239,134.321z"/>
		<polygon style="opacity:0.2;" points="192.387,173.122 195.985,174.169 189.043,196.968 189.043,183.682 		"/>
		<polygon style="opacity:0.2;" points="257.874,174.855 258.823,177.585 249.304,180.376 248.188,198.245 248.049,176.505 		"/>
		<g>
			<path style="fill:#263238;" d="M260.393,173.507c0,0-5.585-29.372-12.758-29.959c-7.173-0.587-4.901,33.049-4.901,33.049
				S256.089,177.029,260.393,173.507z"/>
		</g>
		<g>
			<g>
				<path style="fill:#407BFF;" d="M220.097,261.93c2.716,2.216,35.248,81.615,39.321,93.979
					c4.073,12.364,10.183,82.11,10.183,82.11l16.293-5.492c0,0,3.394-63.497,0-82.417s-29.041-102.3-31.153-107.155
					c-2.112-4.855-6.185-20.427-6.185-20.427l-33.265,7.139L220.097,261.93z"/>
				<path style="opacity:0.5;fill:#FFFFFF;" d="M220.097,261.93c2.716,2.216,35.248,81.615,39.321,93.979
					c4.073,12.364,10.183,82.11,10.183,82.11l16.293-5.492c0,0,3.394-63.497,0-82.417s-29.041-102.3-31.153-107.155
					c-2.112-4.855-6.185-20.427-6.185-20.427l-33.265,7.139L220.097,261.93z"/>
				<g>
					<path style="fill:#FFFFFF;" d="M266.372,308.025c-5.46,1.618-9.038,2.643-14.566,4.009c6.817,0.225,14.751-0.995,20.091-5.691
						C270.165,306.476,268.103,307.892,266.372,308.025z"/>
				</g>
				<g>
					<path style="fill:#FFFFFF;" d="M273.699,330.362c-5.46,1.618-9.038,2.643-14.566,4.009c6.817,0.225,14.751-0.995,20.091-5.691
						C277.492,328.814,275.43,330.23,273.699,330.362z"/>
				</g>
				<g>
					<path style="fill:#FFFFFF;" d="M263.729,315.105c-3.633,1.077-6.012,1.758-9.69,2.667c4.535,0.15,9.813-0.662,13.365-3.786
						C266.252,314.075,264.881,315.017,263.729,315.105z"/>
				</g>
			</g>
			<path style="opacity:0.3;" d="M235.392,295.96c0.004,1.12,6.918-5.469,8.143-11.898c1.225-6.429-2.395-12.318,0-16.689
				s7.649-6.266,11.264-9.03c3.615-2.764,2.774-5.414,2.774-5.414l-20.031,3.093l-5.281,16.754l-1.836,12.546L235.392,295.96z"/>
		</g>
		<path style="opacity:0.2;" d="M238.992,139.474c-0.173,0.022-11.277,78.109-11.277,78.109l7.264,1.466l9.273-70.868
			C244.251,148.181,244.565,138.754,238.992,139.474z"/>
		<g>
			<g>
				<g>
					<path style="fill:#263238;" d="M331.355,141.118l-1.163-1.277c0.207-0.411,0.492-1.072,0.316-1.304
						c-0.499-0.659-2.089-2.221-2.119-2.191c-0.03,0.03-2.41,2.28-2.41,2.28s1.662,2.139,2.041,2.227
						c0.331,0.077,1.146-0.094,1.348-0.139c0.379,0.389,1.135,1.18,1.135,1.18L331.355,141.118z"/>
				</g>
				<g style="opacity:0.4;">
					<path style="fill:#FFFFFF;" d="M331.355,141.118l-1.163-1.277c0.207-0.411,0.492-1.072,0.316-1.304
						c-0.499-0.659-2.089-2.221-2.119-2.191c-0.03,0.03-2.41,2.28-2.41,2.28s1.662,2.139,2.041,2.227
						c0.331,0.077,1.146-0.094,1.348-0.139c0.379,0.389,1.135,1.18,1.135,1.18L331.355,141.118z"/>
				</g>
			</g>
			<g>
				<g>
					<path style="fill:#263238;" d="M324.76,146.546l-1.074-1.353c0.234-0.396,0.563-1.036,0.404-1.279
						c-0.453-0.691-1.933-2.358-1.966-2.33s-2.559,2.111-2.559,2.111s1.512,2.246,1.885,2.36c0.325,0.099,1.15-0.016,1.354-0.047
						c0.352,0.414,1.052,1.254,1.052,1.254L324.76,146.546z"/>
				</g>
				<g style="opacity:0.4;">
					<path style="fill:#FFFFFF;" d="M324.76,146.546l-1.074-1.353c0.234-0.396,0.563-1.036,0.404-1.279
						c-0.453-0.691-1.933-2.358-1.966-2.33s-2.559,2.111-2.559,2.111s1.512,2.246,1.885,2.36c0.325,0.099,1.15-0.016,1.354-0.047
						c0.352,0.414,1.052,1.254,1.052,1.254L324.76,146.546z"/>
				</g>
			</g>
			<g>
				<g>
					<path style="fill:#263238;" d="M318.139,151.929l-1.074-1.353c0.234-0.396,0.563-1.036,0.404-1.279
						c-0.453-0.691-1.933-2.358-1.966-2.33c-0.032,0.028-2.559,2.111-2.559,2.111s1.512,2.246,1.885,2.36
						c0.325,0.099,1.15-0.016,1.354-0.047c0.352,0.414,1.052,1.254,1.052,1.254L318.139,151.929z"/>
				</g>
				<g style="opacity:0.4;">
					<path style="fill:#FFFFFF;" d="M318.139,151.929l-1.074-1.353c0.234-0.396,0.563-1.036,0.404-1.279
						c-0.453-0.691-1.933-2.358-1.966-2.33c-0.032,0.028-2.559,2.111-2.559,2.111s1.512,2.246,1.885,2.36
						c0.325,0.099,1.15-0.016,1.354-0.047c0.352,0.414,1.052,1.254,1.052,1.254L318.139,151.929z"/>
				</g>
			</g>
			<g>
				<g>
					<path style="fill:#263238;" d="M338.938,150.269l1.174,1.267c0.427-0.171,1.109-0.399,1.326-0.205
						c0.614,0.553,2.036,2.269,2.004,2.297c-0.032,0.028-2.476,2.208-2.476,2.208s-1.99-1.837-2.046-2.222
						c-0.049-0.336,0.191-1.134,0.253-1.331c-0.356-0.41-1.079-1.231-1.079-1.231L338.938,150.269z"/>
				</g>
				<g style="opacity:0.4;">
					<path style="fill:#FFFFFF;" d="M338.938,150.269l1.174,1.267c0.427-0.171,1.109-0.399,1.326-0.205
						c0.614,0.553,2.036,2.269,2.004,2.297c-0.032,0.028-2.476,2.208-2.476,2.208s-1.99-1.837-2.046-2.222
						c-0.049-0.336,0.191-1.134,0.253-1.331c-0.356-0.41-1.079-1.231-1.079-1.231L338.938,150.269z"/>
				</g>
			</g>
			<g>
				<g>
					<path style="fill:#263238;" d="M332.97,156.382l1.258,1.184c0.415-0.2,1.08-0.473,1.309-0.294
						c0.651,0.51,2.186,2.126,2.155,2.156c-0.03,0.03-2.32,2.371-2.32,2.371s-2.11-1.697-2.192-2.078
						c-0.071-0.332,0.113-1.144,0.161-1.345c-0.383-0.385-1.161-1.155-1.161-1.155L332.97,156.382z"/>
				</g>
				<g style="opacity:0.4;">
					<path style="fill:#FFFFFF;" d="M332.97,156.382l1.258,1.184c0.415-0.2,1.08-0.473,1.309-0.294
						c0.651,0.51,2.186,2.126,2.155,2.156c-0.03,0.03-2.32,2.371-2.32,2.371s-2.11-1.697-2.192-2.078
						c-0.071-0.332,0.113-1.144,0.161-1.345c-0.383-0.385-1.161-1.155-1.161-1.155L332.97,156.382z"/>
				</g>
			</g>
			<g>
				<g>
					<path style="fill:#263238;" d="M327.047,162.523l1.258,1.184c0.415-0.2,1.08-0.474,1.309-0.294
						c0.65,0.51,2.186,2.126,2.155,2.156c-0.03,0.03-2.32,2.371-2.32,2.371s-2.11-1.697-2.192-2.078
						c-0.071-0.332,0.113-1.145,0.161-1.345c-0.383-0.385-1.16-1.155-1.16-1.155L327.047,162.523z"/>
				</g>
				<g style="opacity:0.4;">
					<path style="fill:#FFFFFF;" d="M327.047,162.523l1.258,1.184c0.415-0.2,1.08-0.474,1.309-0.294
						c0.65,0.51,2.186,2.126,2.155,2.156c-0.03,0.03-2.32,2.371-2.32,2.371s-2.11-1.697-2.192-2.078
						c-0.071-0.332,0.113-1.145,0.161-1.345c-0.383-0.385-1.16-1.155-1.16-1.155L327.047,162.523z"/>
				</g>
			</g>
			<g>
				<path style="fill:#407BFF;" d="M256.53,228.713c0,0-10.585-14.582-20.76-16.022c-10.176-1.439-15.408,7.198-16.402,10.191
					c-0.994,2.994-1.434,9.639-6.383,11.147c-4.948,1.507-15.108-1.541-24.807,3.192c-8.663,4.227-26.74,17.391-14.206,42.134
					c2.937,5.798,7.01,10.93,11.985,15.113c9.295,7.813,24.882,16.372,41.255,5.38c0,0,14.857-9.798,12.531-28.901
					c0,0-1.038-6.839,4.928-11.099c0,0,8.276-2.061,11.402-4.412c2.979-2.24,5.029-4.125,7.29-8.124
					c0.336-0.594,0.405-1.326,0.126-1.949c-0.237-0.529-0.721-1.029-1.696-1.096c-2.167-0.149-5.223,3.733-10.102-1.756
					C246.813,237.023,256.53,228.713,256.53,228.713z"/>
			</g>
			<g style="opacity:0.5;">
				<path d="M256.53,228.713c0,0-10.585-14.582-20.76-16.022c-10.176-1.439-15.408,7.198-16.402,10.191
					c-0.994,2.994-1.434,9.639-6.383,11.147c-4.948,1.507-15.108-1.541-24.807,3.192c-8.663,4.227-26.74,17.391-14.206,42.134
					c2.937,5.798,7.01,10.93,11.985,15.113c9.295,7.813,24.882,16.372,41.255,5.38c0,0,14.857-9.798,12.531-28.901
					c0,0-1.038-6.839,4.928-11.099c0,0,8.276-2.061,11.402-4.412c2.979-2.24,5.029-4.125,7.29-8.124
					c0.336-0.594,0.405-1.326,0.126-1.949c-0.237-0.529-0.721-1.029-1.696-1.096c-2.167-0.149-5.223,3.733-10.102-1.756
					C246.813,237.023,256.53,228.713,256.53,228.713z"/>
			</g>
			<g>
				<path style="fill:#407BFF;" d="M196.693,299.515c-3.2-1.639-6.415-3.809-9.556-6.449c-4.813-4.046-8.692-8.938-11.53-14.538
					c-4.188-8.268-5.165-15.877-2.901-22.616c3.3-9.825,12.482-15.192,16.277-17.044c5.772-2.817,11.87-2.684,16.77-2.576
					c3.052,0.067,5.688,0.124,7.768-0.509c4.97-1.514,6.23-6.817,7.064-10.326c0.18-0.759,0.351-1.476,0.523-1.996
					c0.035-0.105,3.957-10.434,14.407-8.956c1.428,0.202,2.981,0.729,4.614,1.565c6.085,3.116,11.723,9.675,13.935,12.444
					c-1.924,1.923-5.274,5.823-5.553,9.901c-0.138,2.016,0.472,3.804,1.815,5.314c1.128,1.269,2.237,2.174,3.393,2.766
					c2.891,1.481,5.236,0.573,6.788-0.028c0.388-0.15,0.973-0.377,1.166-0.371c0.129,0.009,0.178,0.033,0.179,0.033
					c-0.005,0.042-0.013,0.165-0.079,0.281c-2.052,3.629-3.826,5.33-6.797,7.563c-2.317,1.742-8.542,3.55-10.745,4.099l-0.338,0.084
					l-0.284,0.202c-6.803,4.858-5.724,12.54-5.674,12.865c2.147,17.643-11.164,26.721-11.732,27.099
					C217.054,304.461,207.13,304.861,196.693,299.515z"/>
			</g>
			<g style="opacity:0.2;">
				<path d="M196.693,299.515c-3.2-1.639-6.415-3.809-9.556-6.449c-4.813-4.046-8.692-8.938-11.53-14.538
					c-4.188-8.268-5.165-15.877-2.901-22.616c3.3-9.825,12.482-15.192,16.277-17.044c5.772-2.817,11.87-2.684,16.77-2.576
					c3.052,0.067,5.688,0.124,7.768-0.509c4.97-1.514,6.23-6.817,7.064-10.326c0.18-0.759,0.351-1.476,0.523-1.996
					c0.035-0.105,3.957-10.434,14.407-8.956c1.428,0.202,2.981,0.729,4.614,1.565c6.085,3.116,11.723,9.675,13.935,12.444
					c-1.924,1.923-5.274,5.823-5.553,9.901c-0.138,2.016,0.472,3.804,1.815,5.314c1.128,1.269,2.237,2.174,3.393,2.766
					c2.891,1.481,5.236,0.573,6.788-0.028c0.388-0.15,0.973-0.377,1.166-0.371c0.129,0.009,0.178,0.033,0.179,0.033
					c-0.005,0.042-0.013,0.165-0.079,0.281c-2.052,3.629-3.826,5.33-6.797,7.563c-2.317,1.742-8.542,3.55-10.745,4.099l-0.338,0.084
					l-0.284,0.202c-6.803,4.858-5.724,12.54-5.674,12.865c2.147,17.643-11.164,26.721-11.732,27.099
					C217.054,304.461,207.13,304.861,196.693,299.515z"/>
			</g>
			<g style="opacity:0.7;">
				<path style="fill:#FFFFFF;" d="M246.082,237.993c0,0-0.892,5.294,1.846,7.792c2.738,2.498,7.108,1.632,7.371,4.506
					c0.263,2.874-8.89,2.204-13.657,6.519c-4.767,4.316-5.596,7.361-6.992,12.581c-1.395,5.221-1.487,14.259-6.988,12.012
					c-5.501-2.246-12.134-12.516-8.753-17.849l14.082-13.445L246.082,237.993z"/>
			</g>
			<g>
				<path style="fill:#263238;" d="M311.36,162.62c0,0,4.309-4.867,2.466-7.054l19.758-16.552c0,0,3.351-0.196,6.134,3.142
					c2.784,3.338,1.849,5.536,1.849,5.536l-17.532,18.552c0,0-3.879-0.266-7.102,2.481L311.36,162.62z"/>
			</g>
			<g>
				<polygon style="fill:#263238;" points="231.724,237.234 311.36,162.62 316.933,168.724 238.777,245.135 				"/>
			</g>
			<g style="opacity:0.7;">
				<path style="fill:#FFFFFF;" d="M258.329,212.306c0.08,0.084,6.803,7.062,6.803,7.062l2.102-2.055l-6.75-7.026L258.329,212.306z"
					/>
			</g>
			<g style="opacity:0.7;">
				<polygon style="fill:#FFFFFF;" points="249.079,220.973 255.957,228.339 257.874,226.465 251.098,219.081 				"/>
			</g>
			<g>
				<g style="opacity:0.3;">
					<path d="M218.684,264.819l-7.877-8.129c-0.896-0.925-0.873-2.402,0.052-3.299l2.892-2.803c0.925-0.897,2.402-0.873,3.299,0.052
						l7.877,8.129c0.897,0.925,0.873,2.402-0.052,3.299l-2.892,2.803C221.057,265.767,219.58,265.744,218.684,264.819z"/>
				</g>
				<g style="opacity:0.3;">
					<path d="M232.386,251.989l-7.877-8.129c-0.897-0.925-0.873-2.402,0.052-3.299l2.892-2.803c0.925-0.897,2.402-0.873,3.299,0.052
						l7.877,8.129c0.896,0.925,0.873,2.402-0.052,3.299l-2.892,2.803C234.76,252.938,233.283,252.914,232.386,251.989z"/>
				</g>
				<g>
					<path style="fill:#263238;" d="M219.494,264.113l-7.877-8.129c-0.897-0.925-0.873-2.402,0.052-3.299l2.892-2.803
						c0.925-0.897,2.402-0.873,3.299,0.052l7.877,8.129c0.897,0.925,0.873,2.402-0.052,3.299l-2.892,2.803
						C221.867,265.061,220.39,265.038,219.494,264.113z"/>
				</g>
				<g>
					<path style="fill:#407BFF;" d="M220.137,263.433l-7.944-8.197c-0.413-0.426-0.402-1.105,0.024-1.517l3.316-3.213
						c0.426-0.412,1.105-0.402,1.517,0.024l7.944,8.197c0.413,0.426,0.402,1.105-0.024,1.517l-3.316,3.213
						C221.229,263.87,220.55,263.859,220.137,263.433z"/>
				</g>
			</g>
			<g>
				<g style="opacity:0.3;">
					<path d="M216.111,254.228c-0.225,0.438-0.762,0.612-1.2,0.387c-0.438-0.225-0.612-0.762-0.387-1.2
						c0.225-0.438,0.762-0.612,1.2-0.387C216.162,253.252,216.336,253.789,216.111,254.228z"/>
				</g>
				<g style="opacity:0.3;">
					<path d="M217.409,255.537c-0.225,0.438-0.762,0.612-1.2,0.387c-0.438-0.225-0.612-0.762-0.387-1.2
						c0.225-0.438,0.762-0.612,1.2-0.387C217.46,254.561,217.633,255.098,217.409,255.537z"/>
				</g>
				<g style="opacity:0.3;">
					<path d="M218.722,256.905c-0.225,0.438-0.762,0.612-1.2,0.387c-0.438-0.225-0.612-0.762-0.387-1.2
						c0.224-0.438,0.762-0.612,1.2-0.387C218.773,255.929,218.946,256.467,218.722,256.905z"/>
				</g>
				<g style="opacity:0.3;">
					<path d="M220.034,258.273c-0.225,0.438-0.762,0.612-1.2,0.387c-0.438-0.225-0.612-0.762-0.387-1.2
						c0.225-0.438,0.762-0.612,1.2-0.387C220.085,257.298,220.259,257.835,220.034,258.273z"/>
				</g>
				<g style="opacity:0.3;">
					<path d="M221.347,259.642c-0.225,0.438-0.762,0.612-1.2,0.387c-0.438-0.224-0.612-0.762-0.387-1.2
						c0.225-0.438,0.762-0.612,1.2-0.387C221.398,258.666,221.572,259.203,221.347,259.642z"/>
				</g>
				<g style="opacity:0.3;">
					<path d="M222.689,261.05c-0.225,0.438-0.762,0.612-1.2,0.387c-0.438-0.225-0.612-0.762-0.387-1.2
						c0.225-0.438,0.762-0.612,1.2-0.387C222.74,260.074,222.914,260.612,222.689,261.05z"/>
				</g>
			</g>
			<g>
				<g>
					<path style="fill:#263238;" d="M232.358,250.897l-6.88-7.609c-1.061-1.173-0.969-2.983,0.203-4.044l2.201-1.99
						c1.173-1.061,2.983-0.969,4.044,0.203l6.88,7.609c1.061,1.173,0.969,2.983-0.203,4.044l-2.201,1.99
						C235.229,252.161,233.418,252.07,232.358,250.897z"/>
				</g>
				<g>
					<path style="fill:#407BFF;" d="M232.781,249.927l-6.414-7.093c-0.74-0.819-0.677-2.083,0.142-2.823l2.052-1.855
						c0.819-0.74,2.083-0.677,2.823,0.142l6.414,7.093c0.74,0.819,0.677,2.083-0.142,2.823l-2.051,1.855
						C234.786,250.809,233.522,250.746,232.781,249.927z"/>
				</g>
			</g>
			<g>
				<g style="opacity:0.3;">
					<path d="M229.779,241.117c-0.233,0.434-0.774,0.597-1.208,0.364c-0.434-0.233-0.597-0.774-0.364-1.208s0.774-0.597,1.208-0.364
						C229.849,240.143,230.012,240.684,229.779,241.117z"/>
				</g>
				<g style="opacity:0.3;">
					<path d="M231.055,242.438c-0.233,0.434-0.774,0.597-1.208,0.364c-0.434-0.233-0.597-0.774-0.364-1.208
						c0.233-0.434,0.774-0.597,1.208-0.364C231.125,241.463,231.288,242.004,231.055,242.438z"/>
				</g>
				<g style="opacity:0.3;">
					<path d="M232.317,243.756c-0.233,0.434-0.774,0.597-1.208,0.364c-0.434-0.233-0.597-0.774-0.364-1.208s0.774-0.597,1.208-0.364
						C232.387,242.781,232.55,243.322,232.317,243.756z"/>
				</g>
				<g style="opacity:0.3;">
					<path d="M233.553,245.124c-0.233,0.434-0.774,0.597-1.208,0.364c-0.434-0.233-0.597-0.774-0.364-1.208
						c0.233-0.434,0.774-0.597,1.208-0.364C233.623,244.15,233.786,244.69,233.553,245.124z"/>
				</g>
				<g style="opacity:0.3;">
					<path d="M234.839,246.518c-0.233,0.434-0.774,0.597-1.208,0.364c-0.434-0.233-0.597-0.774-0.364-1.208s0.774-0.597,1.208-0.364
						C234.909,245.543,235.072,246.084,234.839,246.518z"/>
				</g>
				<g style="opacity:0.3;">
					<path d="M236.153,247.952c-0.233,0.434-0.774,0.597-1.208,0.364c-0.434-0.233-0.597-0.774-0.364-1.208
						c0.233-0.434,0.774-0.597,1.208-0.364C236.223,246.977,236.386,247.518,236.153,247.952z"/>
				</g>
			</g>
			<g style="opacity:0.3;">
				<path d="M215.792,287.132c-0.533,1.04-1.807,1.451-2.847,0.918c-1.04-0.532-1.451-1.807-0.918-2.847
					c0.532-1.04,1.807-1.451,2.847-0.918C215.914,284.818,216.325,286.093,215.792,287.132z"/>
			</g>
			<g style="opacity:0.3;">
				<path d="M218.216,295.974c-0.533,1.04-1.807,1.451-2.847,0.918s-1.451-1.807-0.918-2.847c0.532-1.04,1.807-1.451,2.847-0.918
					C218.338,293.66,218.749,294.935,218.216,295.974z"/>
			</g>
			<g style="opacity:0.3;">
				<path d="M207.928,294.809c-0.533,1.04-1.807,1.451-2.847,0.918c-1.04-0.533-1.451-1.807-0.918-2.847
					c0.533-1.04,1.807-1.451,2.847-0.918C208.049,292.495,208.46,293.769,207.928,294.809z"/>
			</g>
			<g>
				<path style="fill:#263238;" d="M216.75,287.048c-0.516,1.008-1.752,1.407-2.76,0.89s-1.407-1.752-0.89-2.76
					c0.516-1.008,1.752-1.407,2.76-0.891C216.868,284.804,217.267,286.04,216.75,287.048z"/>
			</g>
			<g>
				<path style="fill:#263238;" d="M218.779,295.674c-0.516,1.008-1.752,1.407-2.76,0.89s-1.407-1.752-0.89-2.76
					c0.516-1.008,1.752-1.407,2.76-0.89S219.295,294.666,218.779,295.674z"/>
			</g>
			<g style="opacity:0.3;">
				<path d="M226.384,288.565c-0.532,1.04-1.807,1.451-2.847,0.918c-1.04-0.533-1.451-1.807-0.918-2.847s1.807-1.451,2.847-0.918
					C226.506,286.25,226.917,287.525,226.384,288.565z"/>
			</g>
			<g>
				<path style="fill:#263238;" d="M227.358,288.064c-0.516,1.008-1.752,1.407-2.76,0.891c-1.008-0.516-1.407-1.752-0.891-2.76
					c0.516-1.008,1.752-1.407,2.76-0.89C227.475,285.82,227.874,287.056,227.358,288.064z"/>
			</g>
			<g>
				<path style="fill:#263238;" d="M208.363,294.426c-0.516,1.008-1.752,1.407-2.76,0.891s-1.407-1.752-0.89-2.76
					c0.516-1.008,1.752-1.407,2.76-0.89C208.481,292.182,208.88,293.418,208.363,294.426z"/>
			</g>
			<g style="opacity:0.7;">
				<polygon style="fill:#FFFFFF;" points="235.898,233.322 242.959,240.884 244.042,239.882 236.963,232.325 				"/>
			</g>
			<g style="opacity:0.7;">
				<polygon style="fill:#FFFFFF;" points="240.031,229.474 247.091,237.036 248.174,236.033 241.096,228.477 				"/>
			</g>
			<g style="opacity:0.7;">
				<polygon style="fill:#FFFFFF;" points="244.052,225.657 251.043,233.127 252.93,231.298 246.061,223.801 				"/>
			</g>
			<g style="opacity:0.7;">
				<polygon style="fill:#FFFFFF;" points="268.674,202.614 275.302,209.425 277.967,206.82 271.441,200.021 				"/>
			</g>
			<g style="opacity:0.7;">
				<polygon style="fill:#FFFFFF;" points="276.863,194.859 283.491,201.67 286.156,199.066 279.63,192.266 				"/>
			</g>
			<g style="opacity:0.7;">
				<polygon style="fill:#FFFFFF;" points="285.712,186.548 292.122,193.067 294.998,190.169 288.771,183.682 				"/>
			</g>
			<g style="opacity:0.7;">
				<polygon style="fill:#FFFFFF;" points="295.689,177.303 301.687,183.629 305.014,180.377 299.034,174.169 				"/>
			</g>
			<g>
				<path style="fill:#FFFFFF;" d="M202.731,266.022l-0.211-0.221c20.666-19.733,41.776-39.226,60.4-56.424
					c19.917-18.392,37.118-34.276,49.366-46.337l5.877-8.27l0.248,0.177l-5.894,8.291c-12.269,12.084-29.471,27.97-49.39,46.364
					C244.503,226.799,223.395,246.291,202.731,266.022z"/>
			</g>
			<g>
				<path style="fill:#FFFFFF;" d="M204.049,267.373l-0.211-0.221c28.385-27.087,54.219-51.443,77.013-72.931
					c13.846-13.054,25.805-24.327,36.147-34.152l0.002,0.002c0.108-0.135,0.465-0.591,0.936-1.193
					c2.039-2.604,6.281-8.022,7.437-9.288l0.225,0.206c-1.148,1.257-5.544,6.872-7.422,9.27c-0.523,0.669-0.79,1.009-0.94,1.171
					c0.005-0.042-0.01-0.105-0.062-0.145l-0.061,0.079l0.101,0.09c-0.006,0.006-0.012,0.012-0.017,0.018l0.012,0.012
					c-10.343,9.824-22.301,21.098-36.148,34.152C258.266,215.931,232.433,240.287,204.049,267.373z"/>
			</g>
			<g>
				<path style="fill:#FFFFFF;" d="M205.367,268.723l-0.211-0.221c34.076-32.724,87.255-83.439,115.922-110.757
					c1.208-1.152,1.865-1.777,1.884-1.796c0.046-0.064,6.178-8.213,9.558-11.782l0.222,0.21c-3.368,3.557-9.49,11.691-9.551,11.773
					l-0.03-0.022c-0.141,0.188-0.603,0.629-1.872,1.838C292.622,185.284,239.443,235.999,205.367,268.723z"/>
			</g>
			<g>
				<polygon style="fill:#FFFFFF;" points="206.685,270.073 206.474,269.853 323.448,157.098 336.698,147.455 336.877,147.702 
					323.644,157.331 				"/>
			</g>
			<g>
				<polygon style="fill:#FFFFFF;" points="208.004,271.423 207.792,271.204 319.499,162.789 331.231,154.978 331.399,155.232 
					319.689,163.025 				"/>
			</g>
			<g>
				<polygon style="fill:#FFFFFF;" points="209.52,272.776 209.305,272.559 315.911,167.525 324.474,162.103 324.637,162.361 
					316.099,167.762 				"/>
			</g>
			<g>
				<path style="fill:#407BFF;" d="M333.743,144.434c-0.369,0.721-1.253,1.006-1.973,0.637s-1.006-1.253-0.637-1.973
					c0.369-0.721,1.253-1.006,1.973-0.637C333.827,142.83,334.112,143.714,333.743,144.434z"/>
			</g>
			<g>
				<path style="fill:#407BFF;" d="M337.722,148.969c-0.369,0.721-1.253,1.006-1.973,0.637s-1.006-1.253-0.637-1.973
					c0.369-0.721,1.253-1.006,1.973-0.637C337.806,147.365,338.091,148.248,337.722,148.969z"/>
			</g>
			<g>
				<path style="fill:#407BFF;" d="M326.708,149.933c-0.369,0.721-1.253,1.006-1.973,0.637c-0.721-0.369-1.006-1.253-0.637-1.973
					c0.369-0.721,1.253-1.006,1.973-0.637C326.792,148.329,327.077,149.212,326.708,149.933z"/>
			</g>
			<g>
				<path style="fill:#407BFF;" d="M319.719,156.033c-0.369,0.721-1.253,1.006-1.973,0.637c-0.721-0.369-1.006-1.253-0.637-1.973
					c0.369-0.721,1.253-1.006,1.973-0.637C319.803,154.429,320.088,155.313,319.719,156.033z"/>
			</g>
			<g>
				<path style="fill:#407BFF;" d="M332.449,155.877c-0.369,0.721-1.253,1.006-1.973,0.637c-0.721-0.369-1.006-1.253-0.637-1.973
					c0.369-0.721,1.253-1.006,1.973-0.637C332.533,154.273,332.818,155.156,332.449,155.877z"/>
			</g>
			<g>
				<path style="fill:#407BFF;" d="M326.211,162.973c-0.369,0.721-1.253,1.006-1.973,0.637s-1.006-1.253-0.637-1.973
					c0.369-0.721,1.253-1.006,1.973-0.637C326.296,161.368,326.581,162.252,326.211,162.973z"/>
			</g>
			<g style="opacity:0.4;">
				<path style="fill:#FFFFFF;" d="M333.743,144.434c-0.369,0.721-1.253,1.006-1.973,0.637s-1.006-1.253-0.637-1.973
					c0.369-0.721,1.253-1.006,1.973-0.637C333.827,142.83,334.112,143.714,333.743,144.434z"/>
			</g>
			<g style="opacity:0.4;">
				<path style="fill:#FFFFFF;" d="M337.722,148.969c-0.369,0.721-1.253,1.006-1.973,0.637s-1.006-1.253-0.637-1.973
					c0.369-0.721,1.253-1.006,1.973-0.637C337.806,147.365,338.091,148.248,337.722,148.969z"/>
			</g>
			<g style="opacity:0.4;">
				<path style="fill:#FFFFFF;" d="M326.708,149.933c-0.369,0.721-1.253,1.006-1.973,0.637c-0.721-0.369-1.006-1.253-0.637-1.973
					c0.369-0.721,1.253-1.006,1.973-0.637C326.792,148.329,327.077,149.212,326.708,149.933z"/>
			</g>
			<g style="opacity:0.4;">
				<path style="fill:#FFFFFF;" d="M319.719,156.033c-0.369,0.721-1.253,1.006-1.973,0.637c-0.721-0.369-1.006-1.253-0.637-1.973
					c0.369-0.721,1.253-1.006,1.973-0.637C319.803,154.429,320.088,155.313,319.719,156.033z"/>
			</g>
			<g style="opacity:0.4;">
				<path style="fill:#FFFFFF;" d="M332.449,155.877c-0.369,0.721-1.253,1.006-1.973,0.637c-0.721-0.369-1.006-1.253-0.637-1.973
					c0.369-0.721,1.253-1.006,1.973-0.637C332.533,154.273,332.818,155.156,332.449,155.877z"/>
			</g>
			<g style="opacity:0.4;">
				<path style="fill:#FFFFFF;" d="M326.211,162.973c-0.369,0.721-1.253,1.006-1.973,0.637s-1.006-1.253-0.637-1.973
					c0.369-0.721,1.253-1.006,1.973-0.637C326.296,161.368,326.581,162.252,326.211,162.973z"/>
			</g>
			<g>
				<path style="fill:#263238;" d="M320.06,161.866c0.423-0.962,4.318-4.112,4.318-4.112c-0.848-1.05,0.019-1.94,0.019-1.94
					c-1.478,0.782-2.06-0.285-2.06-0.285s-3.287,4.114-4.189,4.473c-0.902,0.359-2.553,0.077-2.553,0.077
					c-0.412,1.819-2.775,3.395-3.15,3.635l-1.038-1.139l-1.16,1.057l5.682,6.233l1.16-1.057l-1.071-1.175
					c0.907-1.722,3.956-3.477,3.956-3.477C319.596,163.4,319.719,162.64,320.06,161.866z"/>
			</g>
			<g style="opacity:0.7;">
				<path style="fill:#FFFFFF;" d="M320.06,161.866c0.423-0.962,4.318-4.112,4.318-4.112c-0.848-1.05,0.019-1.94,0.019-1.94
					c-1.478,0.782-2.06-0.285-2.06-0.285s-3.287,4.114-4.189,4.473c-0.902,0.359-2.553,0.077-2.553,0.077
					c-0.412,1.819-2.775,3.395-3.15,3.635l-1.038-1.139l-1.16,1.057l5.682,6.233l1.16-1.057l-1.071-1.175
					c0.907-1.722,3.956-3.477,3.956-3.477C319.596,163.4,319.719,162.64,320.06,161.866z"/>
			</g>
			<g style="opacity:0.3;">
				<path d="M210.098,278.719L196.6,264.79c-0.646-0.667-0.63-1.732,0.037-2.378l0,0c0.667-0.647,1.732-0.63,2.378,0.037
					l13.498,13.929c0.646,0.667,0.63,1.732-0.037,2.378l0,0C211.809,279.403,210.745,279.386,210.098,278.719z"/>
			</g>
			<g style="opacity:0.3;">
				<path d="M212.318,273.218l-9.853-10.168c-0.646-0.667-0.63-1.732,0.037-2.378h0c0.667-0.646,1.732-0.63,2.378,0.037
					l9.853,10.168c0.646,0.667,0.63,1.732-0.037,2.378l0,0C214.03,273.901,212.965,273.885,212.318,273.218z"/>
			</g>
			<g>
				<path style="fill:#263238;" d="M211.022,277.937l-13.498-13.929c-0.646-0.667-0.63-1.732,0.037-2.378l0,0
					c0.667-0.646,1.732-0.63,2.378,0.037l13.498,13.929c0.646,0.667,0.63,1.732-0.037,2.378l0,0
					C212.734,278.62,211.669,278.604,211.022,277.937z"/>
			</g>
			<g>
				<path style="fill:#263238;" d="M213.315,272.64l-10.213-10.539c-0.646-0.667-0.63-1.732,0.037-2.378l0,0
					c0.667-0.646,1.732-0.63,2.378,0.037l10.213,10.539c0.646,0.667,0.63,1.732-0.037,2.378l0,0
					C215.026,273.324,213.961,273.307,213.315,272.64z"/>
			</g>
			<g style="opacity:0.3;">
				<g>
					<path style="fill:#FFFFFF;" d="M246.693,222.681c-2.341-2.103-5.97-6.038-10.336-6.738c-3.421-0.549-7.038,0.223-9.937,2.12
						c-2.899,1.898-5.054,4.903-5.921,8.258c-0.403,1.559-0.536,3.178-0.967,4.729c-0.431,1.551-1.223,3.091-2.588,3.944
						c-0.603,0.377-1.389,0.724-1.308,1.535c0.046,0.465,0.377,0.859,0.803,1.051c2.767,1.249,5.95,1.986,8.908,1.217l3.324-2.773
						c0.657-0.548,1.599-0.588,2.3-0.099l0.953,0.665L246.693,222.681z"/>
				</g>
			</g>
			<g style="opacity:0.3;">
				<g>
					<path style="fill:#FFFFFF;" d="M231.728,292.074c-13.799,16.307-33.519,10.801-46.993-2.747
						c-12.688-13.212-16.048-35.693,0.699-47.078c-16.218,11.545-12.809,33.67-0.258,46.658
						c6.128,6.288,14.146,11.126,22.882,12.554C216.914,302.918,225.974,298.784,231.728,292.074L231.728,292.074z"/>
				</g>
			</g>
			<g>
				<path style="fill:none;stroke:#263238;stroke-width:0.5;stroke-miterlimit:10;" d="M211.365,276.752"/>
			</g>
			<g style="opacity:0.4;">
				<g>
					<path style="fill:#FFFFFF;" d="M211.694,277.926c-0.618-0.316-0.863-1.076-0.546-1.695c0.316-0.618,1.076-0.863,1.694-0.547
						c0.618,0.316,0.863,1.076,0.547,1.694C213.072,277.997,212.312,278.242,211.694,277.926z M212.703,275.956
						c-0.468-0.24-1.044-0.054-1.283,0.414c-0.24,0.468-0.054,1.044,0.414,1.284c0.468,0.24,1.044,0.054,1.284-0.414
						C213.356,276.771,213.171,276.196,212.703,275.956z"/>
				</g>
				<g>
					<polygon style="fill:#FFFFFF;" points="212.931,277.703 211.38,276.128 211.597,275.913 213.148,277.489 					"/>
				</g>
			</g>
			<g style="opacity:0.4;">
				<g>
					<path style="fill:#FFFFFF;" d="M198.273,264.076c-0.618-0.316-0.863-1.076-0.547-1.694c0.316-0.618,1.077-0.863,1.694-0.547
						c0.618,0.316,0.863,1.076,0.547,1.694C199.651,264.147,198.891,264.393,198.273,264.076z M199.282,262.107
						c-0.468-0.24-1.044-0.054-1.283,0.414c-0.24,0.468-0.054,1.044,0.414,1.283c0.468,0.24,1.044,0.054,1.283-0.414
						C199.936,262.922,199.75,262.347,199.282,262.107z"/>
				</g>
				<g>
					<polygon style="fill:#FFFFFF;" points="199.51,263.854 197.959,262.279 198.177,262.065 199.728,263.64 					"/>
				</g>
			</g>
			<g>
				<path style="fill:#FFFFFF;" d="M221.355,223.646c-0.067-0.034-0.1-0.113-0.074-0.186c1.235-3.599,4.097-6.553,7.656-7.904
					c3.557-1.35,7.653-1.048,10.972,0.835c0.073,0.042,0.099,0.135,0.057,0.208c-0.04,0.071-0.13,0.098-0.202,0.06
					c-0.001-0.001-0.004-0.002-0.006-0.003c-3.227-1.829-7.239-2.134-10.713-0.815c-3.474,1.318-6.269,4.203-7.476,7.717
					c-0.028,0.08-0.114,0.122-0.194,0.094C221.368,223.652,221.362,223.649,221.355,223.646z"/>
			</g>
			<g style="opacity:0.3;">
				<path style="fill:#FFFFFF;" d="M216.026,286.677c-0.293,0.572-0.993,0.798-1.565,0.505c-0.572-0.293-0.798-0.993-0.505-1.565
					c0.293-0.572,0.993-0.798,1.565-0.505C216.092,285.405,216.318,286.105,216.026,286.677z"/>
			</g>
			<g style="opacity:0.3;">
				<path style="fill:#FFFFFF;" d="M226.632,287.606c-0.293,0.572-0.993,0.798-1.565,0.505c-0.572-0.293-0.798-0.993-0.505-1.565
					c0.293-0.572,0.993-0.797,1.565-0.505S226.924,287.034,226.632,287.606z"/>
			</g>
			<g style="opacity:0.3;">
				<path style="fill:#FFFFFF;" d="M217.988,295.269c-0.293,0.572-0.993,0.798-1.565,0.505c-0.572-0.293-0.798-0.993-0.505-1.565
					s0.993-0.798,1.565-0.505C218.055,293.997,218.281,294.697,217.988,295.269z"/>
			</g>
			<g style="opacity:0.3;">
				<path style="fill:#FFFFFF;" d="M207.573,294.021c-0.293,0.572-0.993,0.798-1.565,0.505c-0.572-0.293-0.798-0.993-0.505-1.565
					c0.293-0.572,0.993-0.797,1.565-0.505C207.64,292.749,207.866,293.449,207.573,294.021z"/>
			</g>
		</g>
		<path style="fill:#407BFF;" d="M239.136,138.188c-0.173,0.022-6.369,74.343-6.369,74.343l7.264,1.466l9.272-70.868
			C249.304,143.129,244.709,137.468,239.136,138.188z"/>
		<g>
			<g>
				<path style="fill:#FAAC6D;" d="M212.254,245.09c0,0,8.609,3.135,9.189,5.023c0.58,1.889,0.114,3.517,0.114,3.517
					s2.935,2.927,2.01,4.959c-0.785,1.724-2.803,0.509-2.803,0.509s-0.915,3.76-3.196,2.548c0,0-0.914,2.795-3.715,1.681
					c0,0-2.192,1.486-3.855,0.123c-1.664-1.362-6.601-8.113-7.693-12.224c-0.331-1.245-0.161-1.996,0.682-3.032
					c0,0-13.321-13.143-13.943-12.999l13.472-2.377L212.254,245.09z"/>
			</g>
			<path style="fill:#FAAC6D;" d="M175.604,164.996c-1.276,0.319-7.035,37.704-2.87,47.199c6.808,15.52,30.142,37.543,30.142,37.543
				c0-0.319,9.379-4.647,9.379-4.647s-21.222-33.452-23.965-40.468c-2.743-7.016,4.771-34.034,4.771-34.034L175.604,164.996z"/>
			<path style="fill:#263238;" d="M173.401,167.597c0,0,3.73-26.414,16.353-28.469l8.894,4.109l-2.663,30.932L173.401,167.597z"/>
		</g>
		<g>
			<g>
				<path style="fill:#FAAC6D;" d="M290.355,194.708c0,0,1.218-10.227,3.228-11.407c2.01-1.18,2.165,2.143,2.165,2.143
					s0.055-3.667,1.615-3.854c1.872-0.225,2.019,3.257,2.019,3.257s0.167-2.992,1.566-3.065c1.451-0.076,1.895,3.842,1.895,3.842
					s0.516-2.084,1.517-1.585c1.001,0.499,2.106,8.797,0.781,11.398c-1.324,2.601-10.271,4.43-12.645,4.113
					c-0.682-0.091-3.025,0.147-4.283-2.748"/>
			</g>
			<g>
				<path style="opacity:0.2;" d="M295.924,185.436c0,0.005,0,0.01,0,0.015l-0.401,6.387c-0.006,0.086-0.089,0.152-0.186,0.148
					c-0.097-0.004-0.173-0.08-0.167-0.162l0.401-6.388c0.006-0.086,0.089-0.152,0.186-0.148
					C295.849,185.292,295.921,185.357,295.924,185.436z"/>
			</g>
			<g>
				<path style="opacity:0.2;" d="M299.566,185.02c0,0.001,0,0.002,0,0.004l0.102,6.166c0.001,0.086-0.076,0.157-0.173,0.159
					c-0.098,0.003-0.161-0.053-0.179-0.151l-0.103-6.166c-0.001-0.086,0.077-0.157,0.174-0.16
					C299.483,184.871,299.562,184.936,299.566,185.02z"/>
			</g>
			<g>
				<path style="opacity:0.2;" d="M303.029,185.826l0.207,4.579c0.004,0.086-0.072,0.159-0.169,0.163
					c-0.097,0.004-0.179-0.061-0.183-0.147l-0.207-4.58c-0.004-0.086,0.072-0.159,0.169-0.163
					C302.942,185.674,303.025,185.74,303.029,185.826z"/>
			</g>
		</g>
		<g>
			<g>
				<path style="fill:#263238;" d="M209.116,87.701c-3.495,0.357-6.668,2.916-7.756,6.258c-0.951,2.922-0.38,6.086-0.023,9.138
					c0.356,3.052,0.418,6.389-1.342,8.908c-0.992,1.419-2.462,2.422-3.65,3.681c-1.188,1.259-2.129,3.009-1.661,4.676
					c0.47,1.678,2.264,2.707,4.001,2.839c1.738,0.132,3.442-0.443,5.09-1.009c0.621,1.68-2.874,2.732-2.355,4.446
					c0.246,0.815,1.262,1.072,2.112,1.118c3.421,0.183,6.896-0.921,9.584-3.046L209.116,87.701z"/>
			</g>
			<g>
				<path style="fill:#263238;" d="M255.052,114.775c-0.204-0.251-0.57-0.278-0.893-0.285c-1.549-0.033-3.099-0.067-4.649-0.1
					c1.426-1.511,4.003-1.37,5.275-3.218c0.45-0.654,0.533-1.536,0.079-2.187c-0.659-0.943-1.825-0.74-2.846-0.78
					c-3.467-0.136-5.987-3.474-6.97-6.802c-0.983-3.327-0.973-6.907-2.161-10.167c-1.682-4.616-5.706-8.163-10.303-9.896
					c-4.597-1.733-9.705-1.781-14.523-0.821c-4.629,0.922-9.316,2.945-12.003,6.824l1.335,0.476
					c0.58,10.521,1.285,21.325,5.711,30.888c2.68,5.791,6.75,11.262,7.028,17.637c3.835,0.064,7.645-1.915,9.797-5.091
					c0.193,0.38,0.385,0.76,0.578,1.139c0.972,1.917,3.725,2.003,4.749,0.112c0.576-1.064,1.087-2.163,1.529-3.288
					c0.396,0.216,0.792,0.432,1.189,0.648c1.844,1.004,4.023-0.585,3.64-2.65c-0.347-1.872-1.055-3.679-2.091-5.276
					c5.514,0.127,11.046-1.987,15.071-5.757C254.992,115.808,255.395,115.198,255.052,114.775z"/>
			</g>
			<g>
				<g>
					<g>
						<g>
							<g>
								<g>
									<path style="fill:#FAAC6D;" d="M213.539,135.146c0,0,1.043-7.062-2.996-19.351c0-0.013,0.644-0.326,0.644-0.34
										c-0.557-1.719-1.142-3.305-1.689-4.679c-0.013-0.04-0.013-0.053-0.013-0.053l17.355,9.897
										c-0.259,3.985,1.438,11.607,2.402,14.817c0,0,2.352,5.792-5.445,6.325C218.101,142.151,213.539,135.146,213.539,135.146z"
										/>
									<path style="opacity:0.2;" d="M227.329,126.192l-9.853-1.858c0.995,3.009,3.812,6.517,10.625,6.571
										C228.101,130.905,227.302,127.526,227.329,126.192z"/>
								</g>
								<g>
									<path style="fill:#FAAC6D;" d="M209.062,102.477c1.526,10.727,2.17,16.808,8.064,21.854
										c8.867,7.591,21.498,1.732,23.212-9.267c1.543-9.9-1.212-25.78-12.12-29.122C217.47,82.649,207.536,91.749,209.062,102.477
										z"/>
									<path style="fill:#263238;" d="M209.016,86.805c3.24-6.94,31.718-5.991,30.328,3.702
										c-0.11,0.764-20.204,0.043-19.685-0.195l-2.235,3.208c-0.419-0.058-0.207,3.715-0.008,6.98
										c0.183,2.998-0.447,5.98-1.835,8.644c-1.163,2.232-2.791,4.971-4.802,7.383c-3.911-1.534-4.655-8.067-6.155-11.873
										C202.391,98.984,199.499,88.012,209.016,86.805z"/>
									<path style="fill:#FAAC6D;" d="M205.524,111.804c1.084,2.707,3.322,4.647,5.546,5.538c3.345,1.34,4.263-2.273,3.686-5.645
										c-0.52-3.035-1.71-6.688-5.237-6.59C206.044,105.204,204.285,108.71,205.524,111.804z"/>
									<path style="fill:#E97F3F;" d="M232.01,103.372c0,0,3.931,5.202,5.229,7.344c-1.424,1.51-4.121,1.082-4.121,1.082
										L232.01,103.372z"/>
								</g>
								
									<path style="opacity:0.2;fill:none;stroke:#000000;stroke-width:0.5;stroke-linecap:round;stroke-linejoin:round;stroke-miterlimit:10;" d="
									M207.748,108.627c0.383-0.679,1.25-0.986,2.018-0.861c0.769,0.125,1.438,0.614,1.948,1.203
									c0.612,0.707,1.036,1.575,1.215,2.493"/>
							</g>
						</g>
					</g>
				</g>
				<g>
					<path style="fill:#263238;" d="M231.642,114.547c-0.619,1.135-1.155,2.313-1.604,3.526c-0.222-0.043-0.45-0.081-0.671-0.135
						c-3.03-0.626-4.234-1.913-4.633-3.159c-0.185-0.613-0.224-1.261-0.113-1.891c0.054-0.357,0.158-0.704,0.307-1.033
						c1.409,1.293,4.181,2.094,5.685,2.458C231.269,114.439,231.642,114.547,231.642,114.547z"/>
					<path style="fill:#FFFFFF;" d="M230.62,114.312l-0.502,1.028c-2.845-0.595-4.769-1.388-5.49-2.453
						c0.054-0.357,0.158-0.704,0.307-1.032C226.353,113.16,229.116,113.948,230.62,114.312z"/>
					<path style="fill:#D7504D;" d="M229.381,118.003c-3.03-0.626-4.234-1.913-4.633-3.159c1.147,0.259,2.239,0.718,3.226,1.358
						C228.618,116.641,229.111,117.271,229.381,118.003z"/>
				</g>
			</g>
			<g>
				<g>
					<path style="fill:#263238;" d="M211.55,85.687c-0.046,0.089-0.102,0.172-0.15,0.26c-0.004,0.158-0.013,0.316-0.03,0.473
						L211.55,85.687z"/>
				</g>
				<g>
					<path style="fill:#263238;" d="M208.338,79.441c-1.617-1.47-3.787-2.529-5.948-2.196c-1.98,0.305-3.713,1.848-4.245,3.78
						c-0.532,1.931,0.166,4.145,1.71,5.421c1.544,1.276,3.849,1.546,5.646,0.66c-2.157,1.686-4.836,2.696-7.569,2.854
						c2.337,1.245,5.177,1.51,7.704,0.717c2.431-0.762,4.533-2.5,5.764-4.729C211.464,83.555,210.162,81.098,208.338,79.441z"/>
				</g>
				<g>
					<path style="fill:#263238;" d="M211.37,86.42l-0.383,1.561C211.193,87.472,211.314,86.949,211.37,86.42z"/>
				</g>
			</g>
			<path style="fill:#263238;" d="M223.536,100.509L223.536,100.509c-0.001-0.005-0.003-0.009-0.004-0.014
				c-0.083-0.285,0.08-0.583,0.365-0.666c1.628-0.625,3.459-0.414,4.902,0.566l0,0c0,0,0,0,0,0c0.237,0.178,0.285,0.515,0.107,0.752
				c-0.001,0.001-0.002,0.002-0.002,0.003c-0.183,0.233-0.521,0.274-0.754,0.091c-1.168-0.74-2.618-0.881-3.907-0.38
				c-0.194,0.056-0.403,0.011-0.557-0.118C223.63,100.669,223.58,100.591,223.536,100.509z"/>
			<path style="fill:#263238;" d="M237.674,98.632c-1.385,0.028-2.675,0.711-3.477,1.842l0,0c-0.145,0.254-0.461,0.355-0.727,0.233
				l0,0c-0.002-0.001-0.003-0.002-0.005-0.002c-0.263-0.137-0.365-0.461-0.228-0.724c0.972-1.455,2.592-2.346,4.341-2.387l0,0
				c0.296-0.009,0.544,0.224,0.553,0.52c-0.011,0.11-0.063,0.211-0.146,0.285C237.914,98.512,237.803,98.595,237.674,98.632z"/>
			<g>
				<path style="fill:#263238;" d="M227.024,105.97c-0.801,0.257-1.852,0.063-3.13-0.575c-0.174-0.087-0.245-0.3-0.158-0.474
					c0.089-0.175,0.301-0.246,0.474-0.158c1.423,0.711,2.228,0.686,2.659,0.512c0.425-0.158,0.555-0.462,0.561-0.476
					c0.073-0.178,0.277-0.266,0.457-0.197c0.179,0.071,0.269,0.27,0.202,0.45c-0.022,0.061-0.24,0.597-0.941,0.873
					C227.108,105.942,227.066,105.956,227.024,105.97z"/>
			</g>
			<g>
				<path style="fill:#263238;" d="M237.122,104.492c-0.064,0.021-0.131,0.039-0.199,0.052c-0.636,0.128-1.281-0.089-1.915-0.643
					c-0.147-0.128-0.162-0.352-0.034-0.498c0.125-0.148,0.351-0.162,0.498-0.034c0.46,0.401,0.9,0.564,1.309,0.483
					c0.772-0.164,1.298-1.155,1.302-1.165c0.087-0.173,0.298-0.246,0.474-0.16c0.174,0.086,0.246,0.297,0.16,0.472
					C238.691,103.05,238.131,104.168,237.122,104.492z"/>
			</g>
			<path style="fill:none;stroke:#407BFF;stroke-linecap:round;stroke-linejoin:round;stroke-miterlimit:10;" d="M208.821,114.514
				c1.355,0.192,2.297,1.445,2.106,2.8c-0.192,1.355-1.445,2.297-2.8,2.106c-1.354-0.192-2.297-1.445-2.106-2.8
				c0.091-0.644,0.422-1.195,0.89-1.575"/>
			<path style="opacity:0.3;fill:none;stroke:#000000;stroke-linecap:round;stroke-linejoin:round;stroke-miterlimit:10;" d="
				M220.217,90.344c-4.721,0.202-9.496-1.215-13.342-3.96"/>
			<path style="opacity:0.3;fill:none;stroke:#000000;stroke-linecap:round;stroke-linejoin:round;stroke-miterlimit:10;" d="
				M235.589,90.678c1.204-0.667,1.755-2.215,1.478-3.564c-0.277-1.349-1.257-2.478-2.435-3.191
				c-1.178-0.713-2.541-1.056-3.899-1.282c-5.259-0.876-16.206,0.632-21.4,1.83"/>
		</g>
		<g style="opacity:0.5;">
			<path style="fill:#FFFFFF;" d="M214.818,182.82c1.217,3.24,2.856,6.322,4.862,9.143c0.336-2.989,0.672-5.978,1.008-8.967
				c0.729,2.756,1.458,5.512,2.187,8.268c0.68-2.87,1.361-5.74,2.041-8.61c0.954,2.631,2.412,5.078,4.271,7.17
				c1.105-10.559,1.929-21.146,2.47-31.749c-2.197,5.078-5.151,9.827-8.734,14.042c-1.093,1.286-2.578,2.639-4.229,2.291
				c-1.093-0.23-1.883-1.152-2.587-2.019c-2.982-3.673-5.964-7.347-8.946-11.021c0.867,8.539,3.034,18.534,3.736,25.943l3.979-4.841
				"/>
		</g>
		<path style="fill:none;stroke:#407BFF;stroke-width:0.75;stroke-linecap:round;stroke-linejoin:round;stroke-miterlimit:10;" d="
			M168.013,252.936c-4.755,9.622-3.906,21.778,2.141,30.646"/>
		<path style="fill:none;stroke:#407BFF;stroke-width:0.75;stroke-linecap:round;stroke-linejoin:round;stroke-miterlimit:10;" d="
			M172.394,286.206c1.143,1.281,2.287,2.563,3.43,3.844"/>
	</g>
	<g>
		<path style="fill:#263238;" d="M392.883,453.264h-67.445c-5.437,0-9.844-4.407-9.844-9.844v-73.353
			c0-5.437,4.407-9.844,9.844-9.844h67.445c5.437,0,9.844,4.407,9.844,9.844v73.353C402.727,448.857,398.32,453.264,392.883,453.264
			z"/>
		<path style="fill:#407BFF;" d="M388.263,449.646h-58.205c-5.437,0-9.844-4.407-9.844-9.844v-53.941
			c0-5.437,4.407-9.844,9.844-9.844h58.205c5.437,0,9.844,4.407,9.844,9.844v53.941C398.107,445.238,393.7,449.646,388.263,449.646z
			"/>
		<circle style="opacity:0.3;" cx="359.161" cy="411.984" r="25.249"/>
		<circle style="fill:#263238;" cx="359.161" cy="411.321" r="5.474"/>
		<g style="opacity:0.3;">
			<path d="M376.151,394.987c-6.54-5.491-15.741-8.252-25.154-5.147c-4.401,1.299-8.308,4.203-10.82,8.043
				s-3.608,8.583-3.035,13.136c0.113,0.9,0.378,1.915,1.19,2.32c0.75,0.374,1.643,0.064,2.429-0.228
				c3.285-1.222,6.704-2.081,10.177-2.556c0.561-2.087,1.971-3.932,3.836-5.023c1.866-1.091,4.165-1.414,6.259-0.88
				c1.053,0.269,2.102,0.748,3.179,0.606c0.805-0.107,1.521-0.551,2.208-0.984c3.189-2.012,6.378-4.025,9.568-6.037
				c0.535-0.337,1.12-0.746,1.226-1.37C377.341,396.121,376.729,395.472,376.151,394.987z"/>
		</g>
		<rect x="327.585" y="364.189" style="fill:#407BFF;" width="22.952" height="4.598"/>
		<path style="fill:#407BFF;" d="M359.12,366.645c0,1.357-1.1,2.457-2.457,2.457c-1.357,0-2.457-1.1-2.457-2.457
			c0-1.357,1.1-2.457,2.457-2.457C358.02,364.189,359.12,365.289,359.12,366.645z"/>
		<path style="fill:#407BFF;" d="M367.092,366.645c0,1.357-1.1,2.457-2.457,2.457s-2.457-1.1-2.457-2.457
			c0-1.357,1.1-2.457,2.457-2.457S367.092,365.289,367.092,366.645z"/>
		<path style="fill:#407BFF;" d="M391.667,366.645c0,1.357-1.1,2.457-2.457,2.457c-1.357,0-2.457-1.1-2.457-2.457
			c0-1.357,1.1-2.457,2.457-2.457C390.567,364.189,391.667,365.289,391.667,366.645z"/>
		<path style="fill:none;stroke:#407BFF;stroke-miterlimit:10;" d="M383.075,387.981c-17.102,17.186-35.072,33.507-53.82,48.881"/>
		<path style="fill:none;stroke:#407BFF;stroke-miterlimit:10;" d="M387.097,392.004c-17.102,17.186-35.072,33.507-53.82,48.881"/>
		<path style="fill:none;stroke:#407BFF;stroke-miterlimit:10;" d="M391.12,396.026c-17.102,17.186-35.072,33.507-53.82,48.881"/>
		<path style="fill:none;stroke:#407BFF;stroke-miterlimit:10;" d="M395.142,400.049c-17.102,17.186-35.072,33.507-53.82,48.881"/>
		<path style="fill:none;stroke:#407BFF;stroke-miterlimit:10;" d="M396.491,406.743c-17.102,17.186-27.526,26.813-46.273,42.186"/>
		<path style="fill:none;stroke:#407BFF;stroke-miterlimit:10;" d="M397.2,414.04c-17.102,17.186-16.888,19.516-35.635,34.889"/>
		<path style="fill:none;stroke:#407BFF;stroke-miterlimit:10;" d="M378.933,383.839c-17.102,17.186-35.072,33.507-53.82,48.881"/>
		<path style="fill:none;stroke:#407BFF;stroke-miterlimit:10;" d="M374.623,379.529c-17.102,17.186-35.072,33.507-53.82,48.881"/>
		<path style="fill:none;stroke:#407BFF;stroke-miterlimit:10;" d="M367.74,377.793c-17.102,17.186-27.664,27.3-46.412,42.674"/>
		<path style="fill:none;stroke:#407BFF;stroke-miterlimit:10;" d="M359.116,377.797c-17.102,17.186-18.358,19.661-37.105,35.034"/>
		<g>
			<path style="fill:none;stroke:#407BFF;stroke-miterlimit:10;" d="M331.518,388.657c16.036,17.207,31.173,35.192,45.335,53.865"/>
			<path style="fill:none;stroke:#407BFF;stroke-miterlimit:10;" d="M335.695,385.051c16.036,17.206,31.173,35.192,45.336,53.865"/>
			<path style="fill:none;stroke:#407BFF;stroke-miterlimit:10;" d="M339.872,381.446c16.036,17.207,31.173,35.192,45.336,53.865"/>
			<path style="fill:none;stroke:#407BFF;stroke-miterlimit:10;" d="M344.049,377.84c16.036,17.207,31.173,35.192,45.336,53.865"/>
			<path style="fill:none;stroke:#407BFF;stroke-miterlimit:10;" d="M350.719,376.923c16.036,17.206,24.973,27.648,39.136,46.321"/>
			<path style="fill:none;stroke:#407BFF;stroke-miterlimit:10;" d="M327.217,392.37c16.036,17.207,31.173,35.192,45.335,53.865"/>
			<path style="fill:none;stroke:#407BFF;stroke-miterlimit:10;" d="M322.741,396.233c16.036,17.207,30.189,33.19,44.351,51.863"/>
			<path style="fill:none;stroke:#407BFF;stroke-miterlimit:10;" d="M320.666,402.685c16.036,17.206,25.447,27.806,39.609,46.479"/>
			<path style="fill:none;stroke:#407BFF;stroke-miterlimit:10;" d="M321.328,411.984c16.036,17.206,17.294,17.44,31.457,36.113"/>
		</g>
		<path style="fill:#FFFFFF;" d="M368.096,382.628h-15.818c-1.205,0-2.182-0.977-2.182-2.182l0,0c0-1.205,0.977-2.182,2.182-2.182
			h15.818c1.205,0,2.181,0.977,2.181,2.182l0,0C370.278,381.651,369.301,382.628,368.096,382.628z"/>
		<path style="fill:none;stroke:#263238;stroke-width:0.75;stroke-linecap:round;stroke-linejoin:round;stroke-miterlimit:10;" d="
			M180.924,289.31c-4.573,5.149-8.922,10.66-11.448,17.067c-2.526,6.406-3.047,13.878-0.034,20.071
			c3.012,6.193,10.046,10.602,16.811,9.315c4.128-0.786,8.164-4.603,7.156-8.682c-0.612-2.479-2.98-4.273-5.495-4.716
			c-2.515-0.443-5.117,0.28-7.377,1.468c-7.46,3.923-11.492,12.761-11.269,21.187c0.223,8.426,4.121,16.397,9.252,23.084
			c13.394,17.454,36.036,27.374,57.941,25.329c8.469-0.79,16.694-3.227,25.097-4.541c8.403-1.315,17.345-1.429,25.036,2.203
			c7.691,3.632,13.712,11.802,12.649,20.241c-0.384,3.052-2.082,6.344-5.091,6.983c-3.672,0.78-7.069-3.333-6.502-7.044
			c0.567-3.71,3.98-6.468,7.607-7.434c3.627-0.966,12.181-3.793,20.337-1.158"/>
	</g>
</g>
</svg>
